<svg xmlns="http://www.w3.org/2000/svg" xmlns:xlink="http://www.w3.org/1999/xlink" version="1.1" id="Layer_1" x="0px" y="0px" width="100px" height="100px" viewBox="0 0 100 100" enable-background="new 0 0 100 100" xml:space="preserve">
<path d="M73.019,23.704v9.104h-6.634h-6.078l12.699-9.534C73.019,23.384,73.019,23.538,73.019,23.704z"/>
<line x1="38.85" y1="43.494" x2="38.545" y2="43.716"/>
<path d="M6.707,19.929c0.598-0.347,1.291-0.514,2.041-0.514H47.83h20.512c0.86,0,1.652,0.25,2.331,0.68L55.421,31.323l-2.026,1.484  H27.29c-0.736,0-1.429,0.181-2.027,0.528"/>
<path d="M23.014,52.668v6.453H8.748c-0.347,0-0.694-0.041-1.027-0.125L22.64,39.261l0.375-0.5V52.668z"/>
<path d="M20.6,35.375l-2.942,3.886L4.751,56.332c-0.194-0.472-0.278-0.972-0.278-1.499V39.261V23.704c0-0.166,0-0.32,0.015-0.43  L20.6,35.375z"/>
<g>
	<path d="M31.454,76.187c-0.346,0-0.691-0.035-1.017-0.12l14.912-19.735l1.136-1.499l1.998,1.499l12.778,9.593h0.397l12.776-9.593   l1.998-1.499l1.139,1.499l14.908,19.735c-0.342,0.085-0.686,0.12-1.014,0.12H61.518h-0.121H31.454z"/>
	<path d="M29.42,36.996c0.602-0.346,1.29-0.519,2.033-0.519h39.088h20.509c0.861,0,1.652,0.259,2.341,0.689L78.134,48.393   l-10.812,7.939l-6.062,4.459l-5.976-4.459L29.42,36.996z"/>
	<path d="M95.734,40.766v31.132c0,0.534-0.084,1.034-0.274,1.5L79.601,52.442l16.115-12.107   C95.734,40.456,95.734,40.61,95.734,40.766z"/>
	<path d="M43.315,52.442l-2.945,3.89L27.457,73.398c-0.188-0.466-0.275-0.966-0.275-1.5V56.332V40.766c0-0.155,0-0.31,0.016-0.431   L43.315,52.442z"/>
</g>
</svg>