<svg xmlns="http://www.w3.org/2000/svg" xmlns:xlink="http://www.w3.org/1999/xlink" version="1.1" x="0px" y="0px"  viewBox="0 0 100 100" enable-background="new 0 0 100 100" xml:space="preserve">
<g id="Captions">
	<path fill="#000000" d="M92.416,59.961c-3.533-1.767-0.453-0.415-4.791-2.222c-4.338-1.806-5.365-2.396-5.365-2.396l-0.038-4.14   c0,0,1.625-1.238,2.131-5.154c1.015,0.295,1.357-1.194,1.413-2.146c0.06-0.919,0.6-3.785-0.642-3.529   c0.254-1.914,0.453-3.643,0.363-4.56c-0.311-3.215-2.522-6.571-8.104-6.816c-4.747,0.246-7.828,3.604-8.14,6.818   c-0.09,0.917,0.093,2.645,0.347,4.561c-1.24-0.259-0.706,2.612-0.651,3.531c0.06,0.952,0.395,2.446,1.412,2.151   c0.505,3.915,2.129,5.164,2.129,5.164l-0.04,4.159c0,0-1.028,0.632-5.365,2.436c-4.338,1.808-0.865,0.375-4.398,2.141   c-5.584,2.792-5.584,10.471-5.584,10.471h20.29H98C98,70.431,98,62.752,92.416,59.961z"/>
	<g>
		<path fill="#000000" d="M57.233,58.579c-0.219-0.492-1.718-1.485-2.102-1.54l-0.061-2.046l4.342-1.349c0,0,1.119-0.52,1.228-0.52    c0.109,0-0.519-0.823-0.601-1.043c-0.081-0.218-0.491-1.711-0.491-1.711s1.468,1.791,2.21,2.127c0,0-1.46-2.74-1.894-4.268    c-0.437-1.527-0.725-3.913-0.725-4.13c0-0.219-0.899-6.628-1.39-7.69c-0.492-1.065-1.157-2.508-2.298-3.219    c-1.14-0.709-2.829-1.718-5.257-1.853c-0.037-0.002-0.074-0.002-0.107-0.006c-0.037,0.004-0.074,0.004-0.111,0.006    c-2.426,0.135-4.116,1.145-5.255,1.853c-1.139,0.709-1.806,2.154-2.296,3.219c-0.491,1.062-1.391,7.471-1.391,7.69    c0,0.217-0.255,2.699-0.691,4.225c-0.436,1.529-1.927,4.173-1.927,4.173c0.744-0.336,2.208-2.127,2.208-2.127    s-0.528,1.637-0.61,1.856c-0.083,0.219-0.588,0.897-0.48,0.897c0.108,0,1.227,0.52,1.227,0.52l4.343,1.349l-0.062,2.046    c-0.381,0.055-1.881,1.049-2.1,1.54c-0.219,0.49-0.847,1.578-1.214,1.71c-0.79,0.287-2.489,0.976-3.012,1.372    c-0.894,0.675-3.026,1.255-4.69,1.528c-1.664,0.271-2.714,2.755-2.714,2.755c-0.006,0.082-0.57,4.406-0.555,4.486h24.118    c0.009-1.173,0.287-6.123,4.198-10.298C58.793,59.744,57.362,58.873,57.233,58.579z"/>
	</g>
	<polygon fill="#000000" points="28.217,46.675 18.767,46.675 18.767,37.225 11.96,37.225 11.96,46.675 2.511,46.675 2.511,53.481    11.96,53.481 11.96,62.932 18.767,62.932 18.767,53.481 28.217,53.481  "/>
</g>
<g id="Your_Icon">
</g>
</svg>