<svg xmlns="http://www.w3.org/2000/svg" xmlns:xlink="http://www.w3.org/1999/xlink" version="1.1" x="0px" y="0px" viewBox="0 0 100 100" enable-background="new 0 0 100 100" xml:space="preserve">
<g id="Captions">
</g>
<g id="Your_Icon">
	<path fill="#000000" d="M76.302,24.291H22.901c-0.716,0-1.296,0.58-1.296,1.296v36.081c0,0.716,0.581,1.296,1.296,1.296h53.401   c0.717,0,1.296-0.58,1.296-1.296V25.586C77.598,24.871,77.019,24.291,76.302,24.291z M75.005,26.883v1.296H24.198v-1.296H75.005z    M24.198,60.37V30.772h50.807V60.37H24.198z"/>
	<path fill="#000000" d="M97.077,75.493h-1.159l-2.221-1.591c0.084-0.172,0.137-0.364,0.137-0.569V16.296   c0-0.716-0.581-1.296-1.296-1.296H8.12c-0.716,0-1.296,0.58-1.296,1.296v57.037c0,0.178,0.036,0.348,0.101,0.502l-2.316,1.658   H3.296C2.58,75.493,2,76.075,2,76.79v6.914C2,84.419,2.58,85,3.296,85h93.781c0.717,0,1.297-0.581,1.297-1.296V76.79   C98.374,76.075,97.794,75.493,97.077,75.493z M91.468,75.493H56.379c-0.717,0-1.297,0.582-1.297,1.297v0.973h-9.506V76.79   c0-0.715-0.58-1.297-1.296-1.297H9.059l1.207-0.863h79.997L91.468,75.493z M9.416,17.592h81.825v54.445H9.416V17.592z    M95.781,82.407H4.592v-4.321h38.391v0.973c0,0.716,0.58,1.297,1.296,1.297h12.1c0.715,0,1.296-0.581,1.296-1.297v-0.973h38.106   V82.407z"/>
</g>
</svg>